<?xml version="1.0" encoding="UTF-8"?>
<svg id="Layer_2" data-name="Layer 2" xmlns="http://www.w3.org/2000/svg" viewBox="0 0 81.54 89.81">
  <defs>
    <style>
      .cls-1 {
        fill: #ed1c24;
      }

      .cls-2 {
        fill: #1c75bc;
      }

      .cls-3 {
        fill: #fff;
        stroke: #1c75bc;
        stroke-miterlimit: 10;
        stroke-width: .48px;
      }
    </style>
  </defs>
  <g id="Layer_1-2" data-name="Layer 1">
    <g>
      <path class="cls-3" d="M40.32,32.71c-.15-.51-.31-1.21-.56-1.87-.23-.63-.83-.79-1.27-.32-.93.99-1.82,2-2.67,3.06-.16.2-.15.68-.06.99.49,1.79,1.02,3.58,1.56,5.35.17.57.13,1-.26,1.43-1.72,1.92-3.41,3.87-5.15,5.77-.23.25-.74.42-1.07.35-1.41-.3-2.82-.68-4.2-1.1-.32-.1-.7-.44-.81-.76-.49-1.47-.93-2.96-1.32-4.47-.09-.34,0-.86.21-1.11,1.26-1.51,2.58-2.98,3.89-4.44.54-.6,1.16-.41,1.43.41.26.79.54,1.58.69,2.4.07.37-.07.86-.28,1.16-.41.59-.95,1.08-1.4,1.63-.4.49-.3,1.52.23,1.82.24.14.73.14.9-.03.96-.99,1.88-2.02,2.75-3.1.16-.2.13-.68.04-1-.48-1.77-.99-3.53-1.54-5.27-.2-.63-.13-1.08.3-1.56,2.73-3.05,5.43-6.13,8.14-9.2.81-.91,1.35-.77,1.7.43.32,1.06.65,2.12.94,3.19.15.54.43.84.96.97,1.08.25,2.14.55,3.21.84.98.27,1.18.83.52,1.58-2.33,2.66-4.67,5.31-7.03,7.95-.62.7-1.21.53-1.51-.39-.16-.5-.24-1.04-.46-1.51-.49-1.07-.33-1.95.57-2.58.42-.29.96-.4,1.54-.63Z"/>
      <path class="cls-2" d="M18.98,38.1c-.53-.14-1-.25-1.46-.39-1.18-.34-1.42-1.12-.61-2.07,1.97-2.32,3.97-4.61,5.96-6.91,3-3.48,5.99-6.98,9.01-10.44.51-.59.62-1.13.38-1.89-.45-1.44-.85-2.9-1.24-4.36-.37-1.38.16-2,1.44-1.67,1.36.34,2.73.68,4.08,1.08.71.21,1.21.05,1.71-.54,2.89-3.39,5.82-6.75,8.73-10.12,1.09-1.26,1.62-.99,2.3.59,1.14,2.64.5,4.42-1.31,6.46-8.71,9.84-17.27,19.84-25.81,29.85-1.11,1.3-2.13.59-3.17.41Z"/>
      <path class="cls-2" d="M51.33,26.64c-1.38.11-2.06-.95-2.26-2.53-.19-1.45-.94-2.08-2.25-2.34-2.08-.41-4.13-1.04-6.19-1.6-1.03-.28-1.22-.95-.53-1.81.02-.02.04-.05.06-.07,1.22-2.09,2.8-2.64,4.98-1.69,1.29.56,1.78-.1,1.39-1.55,0-.03-.01-.06-.03-.09-1.18-2.3-.48-4.03,1.25-5.55.86-.76,1.42-.69,1.75.5,1.3,4.62,2.58,9.23,3.87,13.85.18.66.39,1.31.54,1.98.22.96-.21,1.45-1.09,1.27-.42-.09-.84-.22-1.5-.39Z"/>
      <polygon class="cls-1" points="61.57 19.1 61.57 19.1 28.88 55.69 14.69 39.81 14.69 65.64 20.87 65.64 20.87 56.51 28.88 65.47 60.67 29.89 60.67 65.64 66.85 65.64 66.85 13.19 61.57 19.1"/>
    </g>
    <g>
      <g>
        <path class="cls-1" d="M4.25,78.52h.99c.96,0,1.43-.51,1.43-1.54v-2.83l-1.26.51v2.22c0,.1-.02.16-.05.18s-.09.04-.18.04h-1.61v-2.92c-1.21-.21-2.13-.06-2.75.46-.27.22-.47.51-.61.84-.14.34-.21.69-.21,1.06,0,.62.17,1.1.51,1.44.34.34.81.51,1.43.52l.37-.52v.52h1.94ZM2,77.11c-.22,0-.4-.05-.52-.15-.12-.1-.18-.27-.18-.52,0-.26.09-.48.26-.64.17-.17.42-.26.74-.28v1.59h-.3Z"/>
        <polygon class="cls-1" points="2.13 73.33 2.66 73.86 3.46 73.05 2.66 72.23 2.13 72.77 1.61 72.23 .8 73.05 1.61 73.86 2.13 73.33"/>
        <polygon class="cls-1" points="5.54 79.43 5.02 78.9 4.22 79.7 5.02 80.52 5.54 79.98 6.06 80.52 6.87 79.7 6.06 78.9 5.54 79.43"/>
        <path class="cls-1" d="M7.8,77.2c0,.29,0,.5,0,.65s-.02.32-.05.52c-.03.2-.07.37-.13.5s-.14.26-.25.4c-.11.14-.24.28-.4.41l1.02.86c.46-.4.75-.8.88-1.22s.19-1.15.19-2.2v-2.96l-1.26.53v2.52Z"/>
        <polygon class="cls-1" points="13.38 79.7 14.17 80.51 14.98 79.7 14.17 78.89 13.38 79.7"/>
        <polygon class="cls-1" points="17.65 73.36 18.18 73.88 18.98 73.08 18.18 72.25 17.65 72.79 17.14 72.25 16.33 73.08 17.14 73.88 17.65 73.36"/>
        <path class="cls-1" d="M19.7,76.86c0,.1-.02.17-.05.2-.03.03-.1.05-.19.05h-1.19s0-.07,0-.13v-2.82l-1.26.5v1.94c0,.34-.17.51-.51.51h-.44c-.16,0-.27-.06-.35-.19-.08-.13-.15-.34-.23-.64-.15-.74-.38-1.28-.68-1.63-.31-.34-.74-.52-1.3-.52-.41.01-.74.06-1,.16l-.55,1.56c.49-.21.92-.32,1.28-.33.31,0,.54.08.69.24.16.17.28.44.36.83,0,.02,0,.04.02.08.06.25.09.39.11.44h-2.96c-.09,0-.15-.02-.19-.05-.03-.03-.05-.1-.05-.2v-4.8l-1.26.5v4.41c0,1.02.48,1.54,1.43,1.54h5.12c.77,0,1.28-.18,1.53-.54v.54h1.49c.96,0,1.44-.51,1.44-1.54v-4.91l-1.26.5v4.29Z"/>
        <polygon class="cls-1" points="21.68 78.69 22.94 78.17 22.94 72.07 21.68 72.57 21.68 78.69"/>
        <path class="cls-1" d="M26.94,75.53c-.28.35-.42.76-.42,1.22,0,.18.01.33.04.43h-.57v1.34h3.31v-1.34h-.99c-.37,0-.56-.14-.56-.43,0-.06,0-.1.02-.14,0-.04.03-.08.07-.13.03-.05.09-.08.17-.11.08-.03.18-.04.3-.04h.99v-1.33h-1.22c-.49,0-.87.18-1.14.52Z"/>
        <polygon class="cls-1" points="33.67 79.41 33.14 78.89 32.34 79.69 33.14 80.51 33.67 79.98 34.19 80.51 35 79.69 34.19 78.89 33.67 79.41"/>
        <path class="cls-1" d="M39.59,76.88c0,.1-.02.16-.05.18s-.09.04-.18.04h-.25v-2.65l-1.26.51v1.91c0,.1-.02.16-.05.18s-.09.04-.19.04h-.25s0-.07,0-.13v-2.52l-1.26.51v1.91c0,.1-.02.16-.05.18s-.09.04-.19.04h-1.58s0-.03,0-.06,0-.05,0-.07v-2.82l-1.27.5v1.94c0,.34-.17.51-.51.51h-.79c-.09,0-.15-.02-.19-.05-.03-.03-.05-.1-.05-.2v-4.8l-1.26.5v4.41c0,1.02.48,1.54,1.43,1.54h.86c.78,0,1.29-.18,1.53-.55v.55h1.89c.56,0,.95-.18,1.19-.54v.54h.56c.56,0,.95-.18,1.19-.54v.54h.55c.96,0,1.43-.51,1.43-1.54v-2.83l-1.27.51v2.22Z"/>
        <polygon class="cls-1" points="41.57 78.69 42.84 78.17 42.84 72.93 41.57 73.45 41.57 78.69"/>
        <path class="cls-1" d="M41.8,70.93c-.15.19-.22.41-.22.66,0,.1,0,.18.02.23h-.31v.72h1.8v-.72h-.54c-.2,0-.3-.08-.3-.23s.1-.23.3-.23h.54v-.72h-.67c-.27,0-.47.1-.62.29Z"/>
        <polygon class="cls-1" points="48.61 72.93 47.81 72.12 47.01 72.93 47.81 73.75 48.61 72.93"/>
        <polygon class="cls-1" points="53.61 72.91 52.82 72.09 52.01 72.91 52.82 73.72 53.61 72.91"/>
        <polygon class="cls-1" points="57.28 73.04 56.49 72.22 55.68 73.04 56.49 73.85 57.28 73.04"/>
        <path class="cls-1" d="M59.14,74.65c-.27.23-.47.51-.61.85-.14.34-.21.69-.21,1.06,0,.18.02.37.08.55h-1.33s0-.07,0-.13v-2.82l-1.26.5v1.94c0,.34-.17.51-.51.51h-.89v-2.91c-.42-.07-.77-.1-1.04-.1-.77,0-1.36.18-1.79.55-.27.22-.46.51-.6.84s-.2.69-.2,1.06c0,.21.02.39.07.55h-1.33v-.73c0-.72-.12-1.26-.35-1.6-.22-.34-.55-.56-.97-.65-.42-.09-.97-.02-1.64.2v1.35c.6-.2,1.03-.24,1.29-.13.27.11.4.38.4.8v.76h-2.3v1.41h9.33c.77,0,1.28-.18,1.53-.54v.54h5.19v-4.33c-.43-.07-.78-.1-1.06-.1-.78,0-1.39.18-1.83.55ZM53.16,77.11h-.42c-.21,0-.37-.05-.48-.15-.11-.1-.17-.27-.17-.52,0-.29.1-.52.29-.69.19-.17.45-.25.77-.23v1.59ZM60.77,77.11h-.44c-.22,0-.4-.05-.52-.15-.12-.1-.18-.27-.18-.52,0-.29.1-.52.32-.69.21-.17.49-.25.83-.23v1.59Z"/>
        <polygon class="cls-1" points="67.38 73.33 67.9 73.86 68.7 73.05 67.9 72.23 67.38 72.77 66.85 72.23 66.05 73.05 66.85 73.86 67.38 73.33"/>
        <path class="cls-1" d="M72.51,75.7c-.17-.32-.33-.59-.51-.79-.17-.2-.38-.4-.63-.59l1.49-1.1v-1.77l-3.05,2.4v1.2c.56.21.97.49,1.25.82.28.34.45.75.53,1.24h-2.78v-2.92c-1.21-.21-2.13-.06-2.75.46-.27.22-.47.51-.61.84-.14.34-.21.69-.21,1.06,0,.62.17,1.1.51,1.44.34.34.81.51,1.43.52l.37-.52v.52h5.36c.03-.61.02-1.15-.05-1.63-.07-.47-.18-.87-.35-1.2ZM67.55,77.11h-.3c-.22,0-.4-.05-.52-.15-.12-.1-.18-.27-.18-.52,0-.26.09-.48.26-.64.17-.17.42-.26.74-.28v1.59Z"/>
        <polygon class="cls-1" points="79.94 71.95 79.24 71.27 78.57 71.95 79.24 72.64 79.94 71.95"/>
        <polygon class="cls-1" points="79.26 73.47 79.78 73.99 80.59 73.19 79.78 72.37 79.26 72.9 78.73 72.37 77.93 73.19 78.73 73.99 79.26 73.47"/>
        <path class="cls-1" d="M80.27,74.66v2.22c0,.1-.02.16-.05.18s-.09.04-.18.04h-.25v-2.65l-1.26.51v1.91c0,.1-.02.16-.05.18s-.09.04-.19.04h-.25s0-.07,0-.13v-2.52l-1.26.51v1.91c0,.1-.02.16-.05.18s-.09.04-.19.04h-1.28v-2.96l-1.26.53v2.52c0,.29,0,.5,0,.65s-.02.32-.05.52c-.03.2-.07.37-.13.5s-.14.26-.25.4c-.11.14-.24.28-.4.41l1.02.86c.33-.26.58-.55.73-.86.15-.32.25-.7.3-1.15h1.4c.56,0,.95-.18,1.19-.54v.54h.56c.56,0,.95-.18,1.19-.54v.54h.55c.96,0,1.43-.51,1.43-1.54v-2.83l-1.27.51Z"/>
      </g>
      <g>
        <polygon class="cls-2" points="2.85 86.14 1.83 82.12 .51 82.12 .51 88.08 1.42 88.08 1.42 83.92 2.4 87.42 3.29 87.42 4.27 83.85 4.27 88.08 5.18 88.08 5.18 82.12 3.86 82.12 2.85 86.14"/>
        <path class="cls-2" d="M8.61,83.95c-.23-.12-.52-.19-.85-.19-.3,0-.58.05-.83.16s-.45.26-.6.45l.62.68c.11-.09.23-.17.37-.22s.28-.08.42-.08c.22,0,.38.05.5.16s.18.26.18.46v.18h-.92c-.45,0-.79.11-1.02.32s-.34.53-.34.95c0,.44.1.77.3.99s.51.33.91.33c.19,0,.36-.03.53-.08s.31-.13.42-.24c.05-.05.08-.1.11-.15v.41h.91v-2.74c0-.33-.06-.62-.19-.86s-.3-.42-.54-.54ZM8.22,87.13c-.13.07-.33.1-.6.1-.19,0-.34-.03-.43-.1s-.14-.17-.14-.31.04-.24.11-.31.19-.1.34-.1h.92v.39c0,.14-.07.25-.2.32Z"/>
        <path class="cls-2" d="M12.31,83.76c-.24,0-.44.07-.6.2-.13.11-.24.27-.34.46v-.6h-1v4.26h1v-2.57c0-.21.05-.37.15-.49s.24-.17.43-.17c.2,0,.35.06.45.17s.16.28.16.48v2.58h1v-2.58c0-.55-.11-.98-.33-1.28s-.53-.45-.93-.45Z"/>
        <path class="cls-2" d="M14.95,82.4c-.15.19-.23.47-.23.85v.58h-.4v.96h.4v3.3h1v-3.3h.64v-.96h-.64v-.38c0-.1.02-.17.05-.23s.09-.09.16-.09h.42v-1h-.7c-.32,0-.56.09-.72.28Z"/>
        <path class="cls-2" d="M19.16,83.95c-.23-.12-.52-.19-.85-.19-.3,0-.58.05-.83.16s-.45.26-.6.45l.62.68c.11-.09.23-.17.37-.22s.28-.08.42-.08c.22,0,.38.05.5.16s.18.26.18.46v.18h-.92c-.45,0-.79.11-1.02.32s-.34.53-.34.95c0,.44.1.77.3.99s.51.33.91.33c.19,0,.36-.03.53-.08s.31-.13.42-.24c.05-.05.08-.1.11-.15v.41h.91v-2.74c0-.33-.06-.62-.19-.86s-.3-.42-.54-.54ZM18.77,87.13c-.13.07-.33.1-.6.1-.19,0-.34-.03-.43-.1s-.14-.17-.14-.31.04-.24.11-.31.19-.1.34-.1h.92v.39c0,.14-.07.25-.2.32Z"/>
        <path class="cls-2" d="M22.97,84.4c-.09-.18-.2-.33-.33-.43-.17-.14-.35-.2-.56-.2-.27,0-.5.07-.69.22s-.34.36-.44.64-.15.61-.15,1v.68c0,.39.05.72.15.99s.25.48.44.63.42.22.69.22c.22,0,.41-.06.58-.19.13-.11.23-.26.31-.43v.56h1v-5.96h-1v2.28ZM22.9,86.8c-.04.1-.11.17-.19.23s-.19.08-.31.08c-.19,0-.33-.07-.44-.21s-.16-.34-.16-.59v-.68c0-.26.05-.46.16-.6s.25-.22.44-.22c.12,0,.22.03.31.08s.15.13.19.23.07.22.07.37v.96c0,.14-.02.26-.07.36Z"/>
        <path class="cls-2" d="M28.66,82.12l-2.04,5.96h1.08l.3-.96h1.95l.3.96h1.08l-2.04-5.96h-.64ZM28.35,86.04l.64-2.03.64,2.03h-1.27Z"/>
        <path class="cls-2" d="M34.38,85.58c-.19-.06-.43-.11-.72-.15,0,0-.02,0-.03,0s-.02,0-.03,0c-.02,0-.04,0-.07,0s-.04,0-.07,0c-.17-.02-.3-.04-.39-.06s-.16-.05-.22-.09-.09-.1-.09-.17c0-.09.06-.17.17-.22s.27-.08.47-.08c.17,0,.34.03.52.09s.35.14.52.24l.6-.82c-.15-.11-.31-.21-.49-.3s-.36-.14-.55-.19-.38-.07-.58-.07c-.33,0-.61.05-.84.16s-.41.26-.53.46-.18.45-.18.73c0,.33.06.57.18.74s.26.29.43.35.4.11.68.15c0,0,.02,0,.03,0s.02,0,.03,0c.05,0,.09.01.14.02s.09.01.13.02c.16.02.28.03.37.06s.16.06.22.1.08.12.08.22c0,.1-.06.19-.19.24s-.31.09-.55.09c-.18,0-.37-.04-.57-.11s-.39-.17-.58-.3l-.62.87c.14.12.31.23.5.32s.39.15.6.2.44.07.66.07c.34,0,.64-.06.88-.17s.43-.27.56-.48.19-.46.19-.76c0-.35-.07-.62-.2-.8s-.29-.3-.47-.36Z"/>
        <rect class="cls-2" x="35.85" y="83.82" width="1" height="4.26"/>
        <rect class="cls-2" x="35.85" y="82.12" width="1" height="1.12"/>
        <path class="cls-2" d="M40.12,83.95c-.23-.12-.52-.19-.85-.19-.3,0-.58.05-.83.16s-.45.26-.6.45l.62.68c.11-.09.23-.17.37-.22s.28-.08.42-.08c.22,0,.38.05.5.16s.18.26.18.46v.18h-.92c-.45,0-.79.11-1.02.32s-.34.53-.34.95c0,.44.1.77.3.99s.51.33.91.33c.19,0,.36-.03.53-.08s.31-.13.42-.24c.05-.05.08-.1.11-.15v.41h.91v-2.74c0-.33-.06-.62-.19-.86s-.3-.42-.54-.54ZM39.73,87.13c-.13.07-.33.1-.6.1-.19,0-.34-.03-.43-.1s-.14-.17-.14-.31.04-.24.11-.31.19-.1.34-.1h.92v.39c0,.14-.07.25-.2.32Z"/>
        <polygon class="cls-2" points="43.27 83.2 44.72 83.2 44.72 88.08 45.73 88.08 45.73 83.2 47.18 83.2 47.18 82.12 43.27 82.12 43.27 83.2"/>
        <path class="cls-2" d="M49.26,83.76c-.2,0-.38.07-.55.21-.13.11-.24.27-.33.45v-.6h-1.08v4.26h1.08v-2.41c0-.26.06-.46.17-.61s.27-.22.47-.22c.09,0,.17.01.25.04s.13.07.18.12l.59-.91c-.1-.11-.21-.19-.34-.25s-.27-.08-.43-.08Z"/>
        <path class="cls-2" d="M52.82,83.95c-.23-.12-.52-.19-.85-.19-.3,0-.58.05-.83.16s-.45.26-.6.45l.62.68c.11-.09.23-.17.37-.22s.28-.08.42-.08c.22,0,.38.05.5.16s.18.26.18.46v.18h-.92c-.45,0-.79.11-1.02.32s-.34.53-.34.95c0,.44.1.77.3.99s.51.33.91.33c.19,0,.36-.03.53-.08s.31-.13.42-.24c.05-.05.08-.1.11-.15v.41h.91v-2.74c0-.33-.06-.62-.19-.86s-.3-.42-.54-.54ZM52.44,87.13c-.13.07-.33.1-.6.1-.19,0-.34-.03-.43-.1s-.14-.17-.14-.31.04-.24.11-.31.19-.1.34-.1h.92v.39c0,.14-.07.25-.2.32Z"/>
        <path class="cls-2" d="M56.63,84.4c-.09-.18-.2-.33-.33-.43-.17-.14-.35-.2-.56-.2-.27,0-.5.07-.69.22s-.34.36-.44.64-.15.61-.15,1v.68c0,.39.05.72.15.99s.25.48.44.63.42.22.69.22c.22,0,.41-.06.58-.19.13-.11.23-.26.31-.43v.56h1v-5.96h-1v2.28ZM56.57,86.8c-.04.1-.11.17-.19.23s-.19.08-.31.08c-.19,0-.33-.07-.44-.21s-.16-.34-.16-.59v-.68c0-.26.05-.46.16-.6s.25-.22.44-.22c.12,0,.22.03.31.08s.15.13.19.23.07.22.07.37v.96c0,.14-.02.26-.07.36Z"/>
        <rect class="cls-2" x="58.62" y="82.12" width="1" height="1.12"/>
        <rect class="cls-2" x="58.62" y="83.82" width="1" height="4.26"/>
        <path class="cls-2" d="M62.54,83.76c-.24,0-.44.07-.6.2-.13.11-.24.27-.34.46v-.6h-1v4.26h1v-2.57c0-.21.05-.37.15-.49s.24-.17.43-.17c.2,0,.35.06.45.17s.16.28.16.48v2.58h1v-2.58c0-.55-.11-.98-.33-1.28s-.53-.45-.93-.45Z"/>
        <path class="cls-2" d="M66.89,84.4c-.09-.18-.2-.33-.33-.43-.17-.14-.35-.2-.56-.2-.27,0-.5.07-.69.22s-.34.36-.44.64-.15.61-.15,1v.68c0,.39.05.72.15.99s.25.48.44.63.42.22.69.22c.22,0,.41-.06.58-.19.13-.11.23-.26.31-.43v.52c0,.23-.07.4-.2.53s-.3.19-.51.19c-.13,0-.25-.03-.37-.08s-.22-.14-.31-.24l-.67.69c.13.22.32.38.56.5s.51.18.81.18c.36,0,.67-.07.93-.22s.45-.36.58-.64.2-.61.2-1v-4.13h-1v.57ZM66.82,86.8c-.04.1-.11.17-.19.23s-.19.08-.31.08c-.19,0-.33-.07-.44-.21s-.16-.34-.16-.59v-.68c0-.26.05-.46.16-.6s.25-.22.44-.22c.12,0,.22.03.31.08s.15.13.19.23.07.22.07.37v.96c0,.14-.02.26-.07.36Z"/>
        <path class="cls-2" d="M72.09,83.69c.07-.17.17-.29.3-.38s.29-.13.48-.13c.14,0,.27.04.39.11s.22.18.3.32.14.31.18.5h1.04c-.07-.43-.19-.81-.36-1.11s-.39-.54-.65-.7-.56-.24-.9-.24c-.41,0-.75.09-1.04.26s-.51.43-.66.76-.23.73-.23,1.2v1.64c0,.47.08.87.23,1.2s.37.59.66.76.63.26,1.04.26c.33,0,.63-.08.9-.24s.48-.4.65-.7.29-.68.36-1.11h-1.04c-.04.2-.1.37-.18.51s-.18.25-.3.32-.25.11-.4.11c-.19,0-.35-.04-.48-.13s-.23-.21-.3-.38-.1-.36-.1-.59v-1.64c0-.23.03-.43.1-.6Z"/>
        <path class="cls-2" d="M78.45,82.33c-.29-.18-.63-.27-1.02-.27s-.73.09-1.02.27-.52.44-.68.77-.24.72-.24,1.15v1.69c0,.44.08.82.24,1.15s.39.59.68.77.63.27,1.02.27.73-.09,1.02-.27.52-.44.68-.77.24-.72.24-1.15v-1.69c0-.44-.08-.82-.24-1.15s-.39-.59-.68-.77ZM78.34,85.97c0,.21-.04.39-.11.55s-.18.28-.32.37-.3.13-.48.13-.34-.04-.48-.13-.24-.21-.32-.37-.11-.34-.11-.55v-1.75c0-.21.04-.39.11-.55s.18-.28.32-.37.3-.13.48-.13.34.04.48.13.24.21.32.37.11.34.11.55v1.75Z"/>
        <rect class="cls-2" x="80.03" y="86.96" width="1" height="1.12"/>
      </g>
    </g>
  </g>
</svg>